<svg width="21" height="20" viewBox="0 0 21 20" fill="none" xmlns="http://www.w3.org/2000/svg">
<path d="M5.5 4V1C5.5 0.44772 5.94772 0 6.5 0H14.5C15.0523 0 15.5 0.44772 15.5 1V4H20.5V6H18.5V19C18.5 19.5523 18.0523 20 17.5 20H3.5C2.94772 20 2.5 19.5523 2.5 19V6H0.5V4H5.5ZM11.9142 11.9997L13.682 10.232L12.2678 8.8178L10.5 10.5855L8.7322 8.8178L7.31802 10.232L9.0858 11.9997L7.31802 13.7675L8.7322 15.1817L10.5 13.4139L12.2678 15.1817L13.682 13.7675L11.9142 11.9997ZM7.5 2V4H13.5V2H7.5Z" fill="black"/>
</svg>
