<svg width="4" height="20" viewBox="0 0 4 20" fill="none" xmlns="http://www.w3.org/2000/svg">
<g id="...">
<path d="M2.00004 3.46875C1.59095 3.46875 1.24057 3.32481 0.9489 3.03693C0.661021 2.74905 0.518976 2.40057 0.522764 1.99148C0.518976 1.58996 0.661021 1.24716 0.9489 0.963068C1.24057 0.675189 1.59095 0.53125 2.00004 0.53125C2.3864 0.53125 2.72731 0.675189 3.02276 0.963068C3.32201 1.24716 3.47352 1.58996 3.47731 1.99148C3.47352 2.2642 3.40155 2.51231 3.2614 2.7358C3.12504 2.95928 2.94511 3.13731 2.72163 3.26989C2.50193 3.40246 2.2614 3.46875 2.00004 3.46875Z" fill="black"/>
<path d="M2.00004 11.4688C1.59095 11.4688 1.24057 11.3248 0.9489 11.0369C0.661021 10.7491 0.518976 10.4006 0.522764 9.99148C0.518976 9.58996 0.661021 9.24716 0.9489 8.96307C1.24057 8.67519 1.59095 8.53125 2.00004 8.53125C2.3864 8.53125 2.72731 8.67519 3.02276 8.96307C3.32201 9.24716 3.47352 9.58996 3.47731 9.99148C3.47352 10.2642 3.40155 10.5123 3.2614 10.7358C3.12504 10.9593 2.94511 11.1373 2.72163 11.2699C2.50193 11.4025 2.2614 11.4688 2.00004 11.4688Z" fill="black"/>
<path d="M2.00004 19.4688C1.59095 19.4688 1.24057 19.3248 0.9489 19.0369C0.661021 18.7491 0.518976 18.4006 0.522764 17.9915C0.518976 17.59 0.661021 17.2472 0.9489 16.9631C1.24057 16.6752 1.59095 16.5312 2.00004 16.5312C2.3864 16.5312 2.72731 16.6752 3.02276 16.9631C3.32201 17.2472 3.47352 17.59 3.47731 17.9915C3.47352 18.2642 3.40155 18.5123 3.2614 18.7358C3.12504 18.9593 2.94511 19.1373 2.72163 19.2699C2.50193 19.4025 2.2614 19.4688 2.00004 19.4688Z" fill="black"/>
</g>
</svg>
