<svg width="18" height="18" viewBox="0 0 18 18" fill="none" xmlns="http://www.w3.org/2000/svg">
<path d="M9.00075 3.3964C10.7625 1.815 13.485 1.8675 15.1819 3.56802C16.879 5.26854 16.9372 7.97775 15.3589 9.74475L8.99992 16.1138L2.64103 9.74475C1.06279 7.97775 1.12178 5.26426 2.81802 3.56802C4.51618 1.86986 7.23389 1.81265 9.00075 3.3964ZM14.1202 4.62758C12.9959 3.50096 11.1807 3.45526 10.0027 4.51265L9.00142 5.41143L7.99957 4.51336C6.81823 3.45448 5.00629 3.50106 3.87868 4.62868C2.76137 5.74598 2.70528 7.53548 3.73495 8.7174L8.99992 13.9907L14.2651 8.7174C15.2951 7.53503 15.2392 5.74894 14.1202 4.62758Z" fill="black"/>
</svg>
